<?xml version="1.0" encoding="UTF-8" standalone="no"?>
<svg
   id="Layer_1"
   enable-background="new 0 0 512 512"
   height="256"
   viewBox="0 0 256 256"
   width="256"
   version="1.1"
   sodipodi:docname="logo.svg"
   inkscape:version="1.4.2 (ebf0e940d0, 2025-05-08)"
   xmlns:inkscape="http://www.inkscape.org/namespaces/inkscape"
   xmlns:sodipodi="http://sodipodi.sourceforge.net/DTD/sodipodi-0.dtd"
   xmlns="http://www.w3.org/2000/svg"
   xmlns:svg="http://www.w3.org/2000/svg">
  <defs
     id="defs36" />
  <sodipodi:namedview
     id="namedview36"
     pagecolor="#ffffff"
     bordercolor="#000000"
     borderopacity="0.25"
     inkscape:showpageshadow="2"
     inkscape:pageopacity="0.0"
     inkscape:pagecheckerboard="0"
     inkscape:deskcolor="#d1d1d1"
     inkscape:zoom="2.2519531"
     inkscape:cx="255.77797"
     inkscape:cy="256"
     inkscape:window-width="3440"
     inkscape:window-height="1371"
     inkscape:window-x="0"
     inkscape:window-y="0"
     inkscape:window-maximized="1"
     inkscape:current-layer="Layer_1" />
  <g
     id="g36"
     transform="matrix(0.5,0,0,0.5,5.499,0)">
    <path
       d="m 256,21.996 c -135.311,0 -245.002,109.691 -245.002,245.002 0,60.441 21.899,115.76 58.179,158.485 l 111.877,74.824 C 204.678,507.89 229.857,512 256,512 391.311,512 501.002,402.309 501.002,266.998 501.002,131.687 391.311,21.996 256,21.996 Z"
       fill="#816ae2"
       id="path1" />
    <g
       id="g2">
      <path
         d="m 340.642,255.005 -88.215,-50.411 c -3.596,-2.055 -4.846,-6.637 -2.79,-10.232 2.055,-3.597 6.638,-4.846 10.233,-2.791 l 88.215,50.411 c 3.596,2.055 4.846,6.637 2.79,10.232 -2.045,3.578 -6.621,4.856 -10.233,2.791 z"
         fill="#ebf5fc"
         id="path2" />
    </g>
    <g
       id="g3">
      <path
         d="m 249.088,159.839 c -2.157,-3.535 -1.04,-8.151 2.496,-10.309 l 88.873,-54.228 c 3.536,-2.158 8.151,-1.04 10.309,2.496 2.157,3.536 1.04,8.151 -2.496,10.309 l -88.873,54.228 c -3.522,2.149 -8.142,1.054 -10.309,-2.496 z"
         fill="#ebf5fc"
         id="path3" />
    </g>
    <circle
       cx="220.13901"
       cy="177.504"
       fill="#73c3f9"
       r="79.542"
       id="circle3" />
    <path
       d="m 250.57,104.005 c -6.95,4.503 -17.419,14.642 -11.424,32.777 8.629,26.1 23.129,49.6 23.129,49.6 0,0 12.578,21.912 35.816,7.001 1.04,-5.131 1.589,-10.441 1.589,-15.879 0,-33.148 -20.282,-61.55 -49.11,-73.499 z"
       fill="#9bd8f9"
       id="path4" />
    <circle
       cx="220.13901"
       cy="177.504"
       fill="#4fabf7"
       r="44.935001"
       id="circle4" />
    <path
       d="m 296.086,299.363 -1.647,-0.951 c -9.528,-5.501 -21.825,-2.206 -27.326,7.322 l 6.73,-11.656 c 5.346,-9.259 3.298,-21.282 -5.257,-27.694 -10.198,-7.643 -24.578,-4.451 -30.761,6.259 l 2.113,-3.66 c 5.345,-9.259 3.299,-21.282 -5.257,-27.693 -10.198,-7.643 -24.577,-4.452 -30.761,6.259 l 33.317,-57.706 c 5.346,-9.259 3.298,-21.283 -5.257,-27.694 -10.199,-7.643 -24.578,-4.45 -30.761,6.259 l -55.608,96.316 c -1.095,1.897 -3.542,2.512 -5.398,1.348 -4.79,-3.004 -12.227,-7.525 -22.286,-4.151 -22.029,7.391 -37.363,27.427 -38.737,50.628 -0.989,21.337 -1.959,-3.313 8.239,71.63 0.739,4.968 -0.227,10.04 -2.739,14.39 l -15.513,26.914 c 29.248,34.444 67.846,60.691 111.878,74.824 l 24.153,-41.9 c 7.335,-12.704 31.099,-15.496 51.056,-50.064 4.422,-7.658 35.655,-61.756 47.144,-81.654 5.501,-9.528 2.206,-21.824 -7.322,-27.326 z"
       fill="#f9ba8f"
       id="path5" />
    <path
       d="m 225.595,158.285 8.459,4.884 c 4.859,2.805 6.538,9.075 3.734,13.932 l -9.173,15.889 c -2.805,4.859 -9.075,6.539 -13.933,3.734 l -8.459,-4.884 c -4.858,-2.805 -6.538,-9.074 -3.733,-13.933 l 9.174,-15.889 c 2.803,-4.858 9.073,-6.538 13.931,-3.733 z"
       fill="#f9dfcd"
       id="path6" />
    <path
       d="m 115.324,297.012 c 4.824,2.785 10.992,1.132 13.777,-3.692 l 16.51,-28.596 c -1.095,1.897 -3.542,2.511 -5.398,1.347 -3.657,-2.293 -8.862,-5.459 -15.593,-5.333 l -12.988,22.496 c -2.785,4.824 -1.132,10.993 3.692,13.778 z"
       fill="#fd995b"
       id="path7" />
    <g
       id="g8">
      <path
         d="m 462.537,398.839 c -10.815,1.297 -22.039,0.801 -32.773,-0.748 -23.578,-3.403 -46.457,-11.188 -70.2,-13.129 -12.209,-0.999 -25.178,-0.245 -35.568,6.244 -5.796,3.62 -10.425,8.804 -14.856,14.006 -14.962,17.565 -28.668,36.2 -40.978,55.715 -3.841,6.09 -7.604,12.403 -9.188,19.427 -2.441,10.819 0.764,22.251 7.158,31.421 82.553,-3.36 154.579,-47.55 196.405,-112.936 z"
         fill="#9181f2"
         id="path8" />
    </g>
    <g
       id="g21">
      <path
         d="m 399.812,144.16 c 29.568,0 55.447,-20.158 55.447,-20.158 11.785,-13.165 18.953,-30.545 18.953,-49.602 0,-41.09 -33.31,-74.4 -74.4,-74.4 -41.09,0 -74.4,33.31 -74.4,74.4 0,19.057 7.169,36.438 18.952,49.601 -10e-4,0 25.88,20.159 55.448,20.159 z"
         fill="#ff4155"
         id="path9" />
      <path
         d="m 422.981,83.21 c 0,0 -10.881,-62.439 -19.382,-68.641 C 395.436,8.613 401.695,0.681 402.204,0.06 401.407,0.035 400.614,0 399.812,0 c -41.091,0 -74.4,33.31 -74.4,74.4 0,19.057 7.168,36.438 18.952,49.601 0,0 25.88,20.159 55.449,20.159 29.568,0 55.447,-20.158 55.447,-20.158 7.112,-7.945 12.527,-17.433 15.715,-27.891 C 445.037,107.549 422.981,83.21 422.981,83.21 Z"
         fill="#e80054"
         id="path10" />
      <g
         id="g11">
        <path
           d="m 379.919,121.156 c 5.675,4.407 12.679,6.801 19.893,6.801 7.213,0 14.217,-2.394 19.892,-6.801 2.634,-2.046 5.379,-4.566 8.028,-7.529 -1.529,-0.492 -3.084,-0.946 -4.678,-1.345 -0.965,-0.242 -1.812,-0.822 -2.36,-1.594 -2.524,-3.56 -3.222,-9.063 -3.36,-13.054 -1.77,2.062 -3.628,3.786 -5.403,5.165 -7.119,5.528 -17.132,5.521 -24.242,0 -1.775,-1.378 -3.633,-3.103 -5.403,-5.165 -0.141,4.08 -0.867,9.74 -3.53,13.289 -0.454,0.606 -1.154,1.1 -1.994,1.309 -1.657,0.41 -3.279,0.879 -4.875,1.394 2.653,2.964 5.398,5.484 8.032,7.53 z"
           fill="#fcad6d"
           id="path11" />
      </g>
      <path
         d="m 399.716,106.938 c -4.251,-0.021 -8.496,-1.399 -12.025,-4.14 -1.775,-1.378 -3.632,-3.102 -5.402,-5.164 -0.141,4.08 -0.867,9.74 -3.53,13.289 -0.454,0.606 -1.154,1.101 -1.994,1.309 -1.657,0.41 -3.279,0.879 -4.875,1.394 2.65,2.964 5.395,5.484 8.03,7.531 3.197,2.482 6.824,4.3 10.665,5.437 6.11,-6.152 8.336,-14.199 9.131,-19.656 z"
         fill="#fd995b"
         id="path12" />
      <path
         d="m 448.738,122.768 c -2.261,-0.185 -3.464,-1.062 -6.129,-2.565 -5.096,-2.874 -10.359,-5.21 -16.033,-6.934 -2.606,2.961 -5.32,5.453 -7.919,7.471 -5.376,4.175 -12.011,6.443 -18.845,6.443 -6.833,0 -13.468,-2.268 -18.845,-6.443 -2.599,-2.018 -5.313,-4.51 -7.919,-7.471 -5.657,1.722 -10.953,4.069 -16.033,6.934 -2.665,1.503 -3.868,2.38 -6.129,2.565 -2.379,0.194 -4.546,0.618 -6.523,1.233 13.623,15.219 33.416,24.8 55.449,24.8 22.033,0 41.826,-9.581 55.449,-24.8 -1.977,-0.614 -4.144,-1.038 -6.523,-1.233 z"
         fill="#3c58a0"
         id="path13" />
      <g
         id="g20">
        <g
           id="g15">
          <path
             d="m 393.951,14.724 c -17.599,2.398 -19.272,12.376 -19.28,16.037 -0.002,0.768 -0.427,1.479 -1.117,1.815 -9.155,4.453 -4.219,25.917 -4.219,25.917 0.919,0.061 2.298,0.85 3.016,1.198 0.176,-1.094 0.463,-2.17 0.868,-3.211 0.309,-0.793 0.695,-1.594 1.177,-2.351 0.837,-1.313 1.219,-2.863 1.105,-4.412 -0.329,-4.478 -0.587,-12.884 5.323,-15.544 5.007,-2.253 11.149,-0.948 15.066,0.354 2.544,0.846 5.299,0.846 7.843,0 3.917,-1.302 10.059,-2.607 15.066,-0.354 5.894,2.652 5.651,11.016 5.326,15.505 -0.113,1.561 0.258,3.126 1.101,4.45 0.498,0.781 0.893,1.61 1.207,2.428 0.39,1.017 0.667,2.068 0.838,3.135 0.905,-0.438 2.614,-1.332 3.72,-1.176 0.135,-4.693 0.569,-9.753 0.569,-9.753 5.218,-25.544 -18.659,-36.62 -37.609,-34.038 z"
             fill="#2a428c"
             id="path14" />
          <path
             d="m 393.951,14.724 c -17.599,2.398 -19.272,12.376 -19.28,16.037 -0.002,0.768 -0.427,1.479 -1.117,1.815 -9.155,4.453 -4.219,25.917 -4.219,25.917 0.919,0.061 2.298,0.85 3.016,1.198 0.176,-1.094 0.463,-2.17 0.868,-3.211 0.309,-0.793 0.695,-1.594 1.177,-2.351 0.837,-1.313 1.219,-2.863 1.105,-4.412 -0.329,-4.478 -0.587,-12.884 5.323,-15.544 5.007,-2.253 11.15,-0.948 15.066,0.354 1.072,0.356 2.181,0.553 3.296,0.61 -0.171,-0.293 -0.353,-0.584 -0.557,-0.871 -7.55,-10.612 2.945,-18.345 4.97,-19.696 -3.248,-0.324 -6.515,-0.273 -9.648,0.154 z"
             fill="#1c2e7a"
             id="path15" />
        </g>
        <path
           d="m 432.555,59.124 c -1.371,-1.256 -4.101,-0.619 -5.282,0.15 0.259,1.611 0.273,3.258 0.05,4.885 l -1.393,10.147 c 0,0.818 -0.026,1.62 -0.073,2.409 3.397,1.025 5.085,-2.025 5.369,-4.118 0.122,-0.901 0.322,-1.789 0.6,-2.656 0.903,-2.822 4.163,-7.669 0.729,-10.817 z"
           fill="#fcad6d"
           id="path16" />
        <path
           d="m 367.069,59.124 c 1.371,-1.256 4.101,-0.619 5.282,0.15 -0.259,1.611 -0.273,3.258 -0.05,4.885 l 1.393,10.147 c 0,0.818 0.026,1.62 0.073,2.409 -3.397,1.025 -5.085,-2.025 -5.369,-4.118 -0.122,-0.901 -0.322,-1.789 -0.6,-2.656 -0.903,-2.822 -4.163,-7.669 -0.729,-10.817 z"
           fill="#fd995b"
           id="path17" />
        <path
           d="m 426.851,56.139 c -0.314,-0.818 -0.709,-1.647 -1.207,-2.428 -0.844,-1.324 -1.215,-2.889 -1.102,-4.45 0.325,-4.49 0.151,-13.27 -5.743,-15.922 -5.007,-2.253 -11.149,-0.949 -15.066,0.354 -2.544,0.846 -5.301,0.846 -7.844,0 -3.917,-1.302 -10.059,-2.607 -15.066,-0.354 -5.91,2.659 -6.069,11.483 -5.74,15.96 0.114,1.549 -0.267,3.098 -1.105,4.412 -0.482,0.757 -0.868,1.558 -1.177,2.351 -1.001,2.573 -1.293,5.363 -0.918,8.094 l 1.393,10.149 c 0,14.591 7.789,24.508 14.414,29.653 3.458,2.685 7.726,4.144 12.121,4.144 4.395,0 8.663,-1.459 12.121,-4.144 6.625,-5.145 14.414,-15.062 14.414,-29.653 l 1.393,-10.147 c 0.372,-2.704 0.091,-5.466 -0.888,-8.019 z"
           fill="#f9ba8f"
           id="path18" />
        <g
           id="g19">
          <path
             d="M 407.04,103.959 C 400.415,98.814 392.626,88.897 392.626,74.306 l -1.393,-10.149 c -0.375,-2.732 -0.083,-5.522 0.918,-8.094 0.309,-0.793 0.695,-1.594 1.177,-2.351 0.837,-1.313 1.219,-2.863 1.105,-4.412 -0.297,-4.049 -0.195,-11.649 4.196,-15.035 -0.927,-0.089 -1.846,-0.275 -2.739,-0.572 -3.917,-1.302 -10.059,-2.607 -15.066,-0.354 -5.91,2.659 -6.069,11.483 -5.74,15.96 0.114,1.549 -0.267,3.098 -1.105,4.412 -0.482,0.757 -0.868,1.558 -1.177,2.351 -1.001,2.573 -1.293,5.363 -0.918,8.094 l 1.393,10.149 c 0,14.591 7.789,24.508 14.414,29.653 3.458,2.685 7.726,4.144 12.121,4.144 3.408,0 6.738,-0.881 9.675,-2.527 -0.851,-0.476 -1.67,-1.013 -2.447,-1.616 z"
             fill="#fcad6d"
             id="path19" />
        </g>
      </g>
      <path
         d="m 380.967,120.741 c -2.599,-2.018 -5.313,-4.51 -7.919,-7.471 -5.656,1.723 -10.952,4.068 -16.033,6.934 -2.665,1.502 -3.868,2.38 -6.129,2.564 -2.379,0.195 -4.546,0.619 -6.523,1.233 5.834,6.517 12.805,11.989 20.592,16.128 2.91,-2.396 6.981,-4.572 12.686,-6.139 5.972,-1.641 10.358,-4.58 13.585,-8.052 -3.696,-1.072 -7.186,-2.811 -10.259,-5.197 z"
         fill="#2a428c"
         id="path20" />
    </g>
    <g
       id="g35">
      <path
         d="m 399.813,351.927 c 31.207,0 55.659,-21.954 55.659,-21.954 11.658,-13.135 18.741,-30.421 18.741,-49.364 0,-41.09 -33.31,-74.4 -74.4,-74.4 -41.09,0 -74.4,33.31 -74.4,74.4 0,18.943 7.084,36.229 18.742,49.364 0.001,10e-4 24.452,21.954 55.658,21.954 z"
         fill="#ffdd40"
         id="path21" />
      <path
         d="m 436.878,297.243 c 0,0 -43.221,-64.658 -60.41,-64.658 -12.932,0 -14.907,-10.491 -15.092,-15.689 -21.554,13.031 -35.963,36.689 -35.963,63.713 0,18.943 7.084,36.229 18.742,49.364 0.002,0.002 24.453,21.954 55.659,21.954 31.207,0 55.659,-21.954 55.659,-21.954 6.413,-7.225 11.43,-15.711 14.657,-25.033 -20.478,10.684 -33.252,-7.697 -33.252,-7.697 z"
         fill="#ffb332"
         id="path22" />
      <path
         d="m 427.126,269.747 c 0.065,3.562 -0.287,7.209 -0.668,9.641 -1.797,7.921 -4.392,14.818 -7.711,20.497 -1.505,2.575 -3.382,4.916 -5.581,6.958 l -0.282,0.262 v 1.774 c 0,1.839 0.715,3.539 1.931,5.105 6.81,-0.412 12.6,-1.791 17.164,-3.363 5.494,-1.892 7.898,-8.404 4.897,-13.379 -7.067,-11.715 -6.014,-27.496 -6.014,-27.496 h -3.736 z"
         fill="#2a428c"
         id="path23" />
      <path
         d="m 436.878,297.243 c -0.663,-1.099 -1.254,-2.234 -1.782,-3.388 -8.225,4.772 -11.512,-1.989 -11.512,-1.989 0,0 -0.212,-0.312 -0.602,-0.891 -1.243,3.231 -2.655,6.21 -4.234,8.911 -1.505,2.575 -3.382,4.916 -5.581,6.958 l -0.282,0.262 v 1.774 c 0,1.839 0.715,3.54 1.931,5.105 6.81,-0.412 12.6,-1.791 17.164,-3.363 5.495,-1.892 7.9,-8.404 4.898,-13.379 z"
         fill="#1c2e7a"
         id="path24" />
      <path
         d="m 367.648,310.622 c 4.563,1.572 10.354,2.951 17.164,3.363 1.217,-1.566 1.931,-3.267 1.931,-5.105 v -2.179 l -0.269,-0.26 c -2.012,-1.942 -3.745,-4.147 -5.152,-6.555 -3.321,-5.684 -5.915,-12.578 -7.709,-20.49 -0.393,-2.294 -0.748,-6.002 -0.669,-9.649 h -4.178 c 0,0 1.053,15.782 -6.014,27.496 -3.002,4.975 -0.598,11.487 4.896,13.379 z"
         fill="#1c2e7a"
         id="path25" />
      <g
         id="g26">
        <path
           d="m 415.993,224.267 c -4.234,-2.185 -9.499,-3.701 -15.958,-3.701 -6.458,0 -11.724,1.516 -15.958,3.701 -9.269,4.782 -14.981,14.278 -14.981,24.524 v 12.639 0.004 c 1.462,-0.034 3.079,0.445 4.121,1.139 0.384,-1.256 0.91,-2.344 1.62,-3.144 0.639,-0.72 1.04,-1.612 1.069,-2.565 0.109,-3.649 1.066,-12.272 7.492,-15.572 1.79,-0.919 3.977,-0.218 4.983,1.525 3.87,6.71 12.899,15.553 32.977,11.785 1.424,-0.267 2.762,0.792 2.806,2.24 v 0.015 c 0.029,0.961 0.43,1.853 1.069,2.573 0.71,0.8 1.236,1.888 1.62,3.144 1.042,-0.695 2.659,-1.174 4.121,-1.139 v -0.004 -12.639 c 0,-10.247 -5.712,-19.743 -14.981,-24.525 z"
           fill="#2a428c"
           id="path26" />
      </g>
      <path
         d="m 399.649,252.349 c -9.951,-19.011 8.745,-30.855 8.745,-30.855 -2.533,-0.586 -5.311,-0.927 -8.359,-0.927 -6.458,0 -11.724,1.516 -15.958,3.701 -9.269,4.782 -14.981,14.278 -14.981,24.524 v 12.639 0.004 c 1.462,-0.034 3.079,0.445 4.121,1.139 0.384,-1.256 0.91,-2.344 1.62,-3.144 0.639,-0.72 1.041,-1.612 1.069,-2.565 0.109,-3.649 1.066,-12.272 7.492,-15.572 1.79,-0.919 3.977,-0.218 4.983,1.525 2.092,3.628 5.697,7.875 11.736,10.42 -0.158,-0.297 -0.313,-0.594 -0.468,-0.889 z"
         fill="#1c2e7a"
         id="path27" />
      <path
         d="m 372.962,279.52 c 0,0 -1.678,-10.62 0.255,-16.945 -1.754,-1.169 -5.142,-1.74 -6.666,-0.25 -3.12,3.05 -0.834,7.656 0.26,10.566 0.336,0.893 0.553,1.797 0.651,2.702 0.213,1.967 1.279,4.846 5.701,4.778 -0.067,-0.284 -0.135,-0.563 -0.201,-0.851 z"
         fill="#fd995b"
         id="path28" />
      <path
         d="m 433.519,262.324 c -1.524,-1.49 -4.912,-0.919 -6.666,0.25 1.933,6.325 0.255,16.945 0.255,16.945 -0.065,0.288 -0.134,0.567 -0.201,0.85 4.422,0.068 5.488,-2.811 5.701,-4.778 0.098,-0.905 0.315,-1.809 0.651,-2.702 1.094,-2.909 3.38,-7.514 0.26,-10.565 z"
         fill="#fcad6d"
         id="path29" />
      <path
         d="m 371.878,322.666 c 4.947,8.466 12.439,15.051 21.665,19.043 4.132,1.787 8.871,1.787 13.003,0 9.226,-3.992 16.718,-10.576 21.665,-19.043 0.188,-0.321 0.366,-0.656 0.547,-0.988 -7.765,-2.982 -14.993,-7.231 -14.993,-12.794 0,-1.939 0,-1.358 0,-2.614 -3.381,3.022 -9.178,6.873 -13.953,6.989 -4.775,-0.116 -10.573,-3.966 -13.953,-6.989 0,3.604 0.957,7.943 -10.373,13.444 -1.336,0.649 -2.765,1.258 -4.231,1.829 0.207,0.377 0.41,0.758 0.623,1.123 z"
         fill="#fcad6d"
         id="path30" />
      <path
         d="m 399.695,313.25 c -4.752,-0.174 -10.482,-3.983 -13.836,-6.98 0,3.604 0.957,7.943 -10.373,13.444 -1.336,0.649 -2.765,1.258 -4.231,1.829 0.205,0.378 0.409,0.759 0.622,1.124 4.352,7.448 10.675,13.438 18.414,17.489 6.541,-9.1 8.703,-19.975 9.404,-26.906 z"
         fill="#fd995b"
         id="path31" />
      <path
         d="m 447.418,326.96 c -1.056,-0.285 -11.085,-2.194 -19.923,-5.782 -0.259,0.467 -0.511,0.947 -0.777,1.403 -4.687,8.021 -11.784,14.259 -20.526,18.041 -3.915,1.693 -8.404,1.693 -12.319,0 -8.741,-3.782 -15.839,-10.02 -20.526,-18.041 -0.291,-0.499 -0.567,-1.023 -0.85,-1.535 -9.06,3.733 -20.243,5.903 -20.29,5.915 -1.914,0.367 -4.897,1.201 -8.054,3.013 13.629,15.356 33.512,25.036 55.659,25.036 22.147,0 42.03,-9.68 55.659,-25.036 -3.156,-1.814 -6.139,-2.647 -8.053,-3.014 z"
         fill="#fc90ce"
         id="path32" />
      <path
         d="m 424.385,256.858 c -0.014,-0.464 -0.043,-1.025 -0.097,-1.652 -0.163,-0.235 -0.358,-0.451 -0.586,-0.634 -0.693,-0.557 -1.594,-0.782 -2.466,-0.619 -19.145,3.593 -28.121,-4.252 -32.282,-11.466 -0.76,-1.318 -2.076,-2.111 -3.472,-2.241 -1.181,0.328 -2.267,0.818 -3.252,1.475 -5.61,3.735 -6.445,11.83 -6.543,15.138 -0.026,0.869 -0.376,1.708 -1.014,2.426 -3.513,3.958 -2.744,15.523 -1.924,20.284 1.815,8.011 4.444,14.996 7.813,20.762 3.42,5.853 8.6,10.406 14.979,13.166 2.857,1.236 6.133,1.236 8.99,0 6.379,-2.76 11.559,-7.312 14.979,-13.166 3.369,-5.764 5.998,-12.75 7.816,-20.777 0.787,-5.005 1.626,-16.266 -1.927,-20.27 -0.638,-0.718 -0.988,-1.557 -1.014,-2.426 z"
         fill="#f9ba8f"
         id="path33" />
      <path
         d="m 404.039,300.33 c -3.369,-5.766 -5.998,-12.751 -7.813,-20.762 -0.82,-4.761 -1.589,-16.326 1.924,-20.284 0.638,-0.718 0.988,-1.557 1.014,-2.426 0.032,-1.091 0.147,-2.705 0.484,-4.509 -5.255,-2.41 -8.592,-6.215 -10.696,-9.862 -0.76,-1.318 -2.076,-2.111 -3.472,-2.241 -1.182,0.328 -2.267,0.818 -3.252,1.475 -5.61,3.735 -6.445,11.83 -6.544,15.138 -0.026,0.869 -0.376,1.708 -1.014,2.426 -3.513,3.958 -2.744,15.523 -1.924,20.284 1.815,8.011 4.444,14.996 7.813,20.762 3.42,5.853 8.6,10.406 14.979,13.166 2.857,1.236 6.133,1.236 8.99,0 2.634,-1.139 5.059,-2.589 7.244,-4.305 -3.106,-2.441 -5.724,-5.425 -7.733,-8.862 z"
         fill="#fcad6d"
         id="path34" />
      <path
         d="m 390.941,339.224 c -7.399,-3.839 -13.443,-9.54 -17.593,-16.643 -0.291,-0.499 -0.567,-1.023 -0.85,-1.535 -9.06,3.733 -20.243,5.903 -20.29,5.914 -1.914,0.368 -4.897,1.201 -8.054,3.013 8.792,9.906 20.189,17.444 33.114,21.551 5.994,-3.129 10.417,-7.497 13.673,-12.3 z"
         fill="#f964b2"
         id="path35" />
    </g>
    <path
       d="m 87.429,384.179 c 0.739,4.968 -0.227,10.04 -2.739,14.39 l -15.513,26.914 c 29.248,34.444 67.846,60.691 111.878,74.824 l 24.153,-41.9 c 3.899,-6.753 12.439,-10.705 22.582,-18.117 C 117.722,470.864 87.429,384.179 87.429,384.179 Z"
       fill="#fd995b"
       id="path36" />
  </g>
</svg>
